<svg id="Capa_1" enable-background="new 0 0 512 512" height="512" viewBox="0 0 512 512" width="512" xmlns="http://www.w3.org/2000/svg"><g><path d="m158.449 402.054c-6.176-17.489-22.873-30.054-42.449-30.054-24.813 0-45 20.187-45 45 0 3.498.413 6.941 1.234 10.312-7.172 8.097-11.234 18.567-11.234 29.688 0 24.813 20.187 45 45 45 5.185 0 10.255-.896 15.059-2.635 9.742 8.136 21.957 12.635 34.941 12.635 30.327 0 55-24.673 55-55 0-29.507-23.355-53.661-52.551-54.946zm-2.449 79.946c-7.856 0-15.125-3.698-19.942-10.147-2.795-3.767-7.326-6.039-12.017-6.022-7.434-.403-9.954 6.149-18.041 6.17-8.271 0-15-6.729-15-15 0-5.116 2.628-9.837 7.031-12.628 6.755-4.281 8.963-13.11 5.018-20.068-1.36-2.398-2.049-4.856-2.049-7.305 0-8.271 6.729-15 15-15 8.057 0 14.651 6.385 14.986 14.36-.044.371-.089.834-.115 1.359-.236 4.775 1.819 9.378 5.533 12.39 3.714 3.013 8.641 4.072 13.265 2.857 2.506-.66 4.518-.967 6.331-.967 13.785 0 25 11.215 25 25s-11.215 25.001-25 25.001z"/><path d="m398.449 380.054c-6.176-17.489-22.873-30.054-42.449-30.054-24.813 0-45 20.187-45 45 0 3.498.413 6.941 1.234 10.312-7.172 8.097-11.234 18.567-11.234 29.688 0 24.813 20.187 45 45 45 5.185 0 10.255-.896 15.059-2.635 9.742 8.136 21.957 12.635 34.941 12.635 30.327 0 55-24.673 55-55 0-29.507-23.355-53.661-52.551-54.946zm-2.449 79.946c-7.856 0-15.125-3.698-19.942-10.147-2.393-3.202-5.964-5.317-9.923-5.876-.698-.098-1.397-.146-2.094-.146-3.255 0-6.443 1.06-9.066 3.05-1.876 1.423-4.957 3.12-8.975 3.12-8.271 0-15-6.729-15-15 0-5.116 2.628-9.837 7.031-12.628 6.755-4.281 8.963-13.11 5.018-20.068-1.36-2.398-2.049-4.856-2.049-7.305 0-8.271 6.729-15 15-15 8.057 0 14.651 6.385 14.986 14.36-.044.371-.089.834-.115 1.359-.236 4.775 1.819 9.378 5.533 12.39 3.714 3.014 8.64 4.072 13.265 2.857 2.506-.66 4.518-.967 6.331-.967 13.785 0 25 11.215 25 25s-11.215 25.001-25 25.001z"/><path d="m472.13 180.301-101.13-91.937v-73.364c0-8.284-6.716-15-15-15h-200c-8.284 0-15 6.716-15 15v73.364l-101.13 91.937c-22.405 2.555-39.87 21.621-39.87 44.699v60c0 24.813 20.187 45 45 45h422c24.813 0 45-20.187 45-45v-60c0-23.078-17.465-42.144-39.87-44.699zm-131.13-150.301v50h-170v-50zm-179.201 80h188.402l77 70h-342.402zm320.201 175c0 8.271-6.729 15-15 15h-422c-8.271 0-15-6.729-15-15v-60c0-8.271 6.729-15 15-15h422c8.271 0 15 6.729 15 15z"/><path d="m105 240h-30c-8.284 0-15 6.716-15 15s6.716 15 15 15h30c8.284 0 15-6.716 15-15s-6.716-15-15-15z"/><path d="m195 240h-30c-8.284 0-15 6.716-15 15s6.716 15 15 15h30c8.284 0 15-6.716 15-15s-6.716-15-15-15z"/></g></svg>